# xmcd
#
# Track frame offsets: 
#        182
#        12842
#        27165
#        40800
#        60427
#        77915
#        92870
#        111525
#        125025
#        139842
#
# Disc length: 2074 seconds
#
# Revision: 2
# Processed by: cddbd v1.5.1PL0 Copyright (c) Steve Scherf et al.
# Submitted via: ExactAudioCopy v0.95a5
#
DISCID=8508180a
DTITLE=Regina Regina - Regina Regina
DYEAR=1997
DGENRE=Country
TTITLE0=More Than I Wanted To Know
TTITLE1=The Big Bad Broken Heart
TTITLE2=Asking For The Moon
TTITLE3=A Far Cry From Him
TTITLE4=Ticket Out Of Kansas
TTITLE5=Border Town Road
TTITLE6=I Should Be Laughing
TTITLE7=Right Plan, Wrong Man
TTITLE8=Before I Knew About You
TTITLE9=She'll Let That Telephone Ring
EXTD=
EXTT0=
EXTT1=
EXTT2=
EXTT3=
EXTT4=
EXTT5=
EXTT6=
EXTT7=
EXTT8=
EXTT9=
PLAYORDER=
